<?xml version="1.0" encoding="UTF-8"?>
<svg width="900" height="520" viewBox="0 0 900 520" xmlns="http://www.w3.org/2000/svg" font-family="Segoe UI, Arial, sans-serif">
  <!-- Fundo -->
  <rect width="900" height="520" fill="#0f1923" rx="16"/>

  <!-- Título -->
  <text x="450" y="46" text-anchor="middle" font-size="22" font-weight="bold" fill="#e8eaf0">Modelo Pedagógico</text>
  <text x="450" y="70" text-anchor="middle" font-size="28" font-weight="bold" fill="#ffffff">40 / 40 / 20</text>
  <text x="450" y="94" text-anchor="middle" font-size="13" fill="#8892a4">CECyber — Formação Security Operations em Nuvem</text>

  <!-- Linha separadora -->
  <line x1="60" y1="110" x2="840" y2="110" stroke="#2a3548" stroke-width="1.5"/>

  <!-- === PILAR 1: VIDEOAULAS (40%) === -->
  <rect x="40" y="128" width="250" height="320" rx="14" fill="#1a2744" stroke="#2563eb" stroke-width="2"/>
  <!-- Badge percentual -->
  <circle cx="165" cy="155" r="30" fill="#2563eb" opacity="0.9"/>
  <text x="165" y="150" text-anchor="middle" font-size="18" font-weight="bold" fill="#ffffff">40%</text>
  <text x="165" y="167" text-anchor="middle" font-size="9" fill="#bfdbfe">do tempo</text>

  <text x="165" y="208" text-anchor="middle" font-size="15" font-weight="bold" fill="#60a5fa">Videoaulas</text>
  <text x="165" y="224" text-anchor="middle" font-size="11" fill="#93c5fd">Aprendizado Assíncrono</text>

  <!-- Ícone câmera -->
  <rect x="143" y="234" width="44" height="32" rx="6" fill="#1e3a8a" stroke="#3b82f6" stroke-width="1.5"/>
  <circle cx="165" cy="250" r="9" fill="#2563eb"/>
  <circle cx="165" cy="250" r="5" fill="#60a5fa"/>
  <rect x="182" y="241" width="10" height="7" rx="2" fill="#3b82f6"/>

  <line x1="60" y1="284" x2="280" y2="284" stroke="#1e3a8a" stroke-width="1"/>

  <!-- Bullets pilar 1 -->
  <circle cx="80" cy="304" r="4" fill="#3b82f6"/>
  <text x="94" y="308" font-size="11" fill="#cbd5e1">Pílulas de 8–15 minutos</text>
  <circle cx="80" cy="328" r="4" fill="#3b82f6"/>
  <text x="94" y="332" font-size="11" fill="#cbd5e1">Talking head + animações</text>
  <circle cx="80" cy="352" r="4" fill="#3b82f6"/>
  <text x="94" y="356" font-size="11" fill="#cbd5e1">Quizzes integrados</text>
  <circle cx="80" cy="376" r="4" fill="#3b82f6"/>
  <text x="94" y="380" font-size="11" fill="#cbd5e1">Legendas e transcrição</text>
  <circle cx="80" cy="400" r="4" fill="#3b82f6"/>
  <text x="94" y="404" font-size="11" fill="#cbd5e1">Revisão semestral</text>
  <circle cx="80" cy="424" r="4" fill="#3b82f6"/>
  <text x="94" y="428" font-size="11" fill="#cbd5e1">LMS + SCORM/xAPI</text>

  <!-- === PILAR 2: LABORATÓRIOS (40%) === -->
  <rect x="325" y="128" width="250" height="320" rx="14" fill="#14292a" stroke="#059669" stroke-width="2"/>
  <!-- Badge percentual -->
  <circle cx="450" cy="155" r="30" fill="#059669" opacity="0.9"/>
  <text x="450" y="150" text-anchor="middle" font-size="18" font-weight="bold" fill="#ffffff">40%</text>
  <text x="450" y="167" text-anchor="middle" font-size="9" fill="#a7f3d0">do tempo</text>

  <text x="450" y="208" text-anchor="middle" font-size="15" font-weight="bold" fill="#34d399">Laboratórios</text>
  <text x="450" y="224" text-anchor="middle" font-size="11" fill="#6ee7b7">Aprendizado Prático</text>

  <!-- Ícone terminal -->
  <rect x="428" y="234" width="44" height="32" rx="6" fill="#064e3b" stroke="#10b981" stroke-width="1.5"/>
  <text x="432" y="249" font-size="10" fill="#34d399" font-family="monospace">$ _</text>
  <text x="432" y="261" font-size="8" fill="#059669" font-family="monospace">▶ run</text>

  <line x1="345" y1="284" x2="565" y2="284" stroke="#064e3b" stroke-width="1"/>

  <!-- Bullets pilar 2 -->
  <circle cx="365" cy="304" r="4" fill="#10b981"/>
  <text x="379" y="308" font-size="11" fill="#cbd5e1">Labs guiados (step-by-step)</text>
  <circle cx="365" cy="328" r="4" fill="#10b981"/>
  <text x="379" y="332" font-size="11" fill="#cbd5e1">Labs desafio (sem guia)</text>
  <circle cx="365" cy="352" r="4" fill="#10b981"/>
  <text x="379" y="356" font-size="11" fill="#cbd5e1">Capstone integrador</text>
  <circle cx="365" cy="376" r="4" fill="#10b981"/>
  <text x="379" y="380" font-size="11" fill="#cbd5e1">Tenants reais: Azure/AWS/GCP</text>
  <circle cx="365" cy="400" r="4" fill="#10b981"/>
  <text x="379" y="404" font-size="11" fill="#cbd5e1">CECyber Play Labs</text>
  <circle cx="365" cy="424" r="4" fill="#10b981"/>
  <text x="379" y="428" font-size="11" fill="#cbd5e1">Validação automatizada</text>

  <!-- === PILAR 3: LIVE ONLINE (20%) === -->
  <rect x="610" y="128" width="250" height="320" rx="14" fill="#231a2a" stroke="#9333ea" stroke-width="2"/>
  <!-- Badge percentual -->
  <circle cx="735" cy="155" r="30" fill="#9333ea" opacity="0.9"/>
  <text x="735" y="150" text-anchor="middle" font-size="18" font-weight="bold" fill="#ffffff">20%</text>
  <text x="735" y="167" text-anchor="middle" font-size="9" fill="#e9d5ff">do tempo</text>

  <text x="735" y="208" text-anchor="middle" font-size="15" font-weight="bold" fill="#c084fc">Live Online</text>
  <text x="735" y="224" text-anchor="middle" font-size="11" fill="#d8b4fe">Aprendizado Síncrono</text>

  <!-- Ícone webcam/live -->
  <circle cx="735" cy="250" r="14" fill="#4c1d95" stroke="#9333ea" stroke-width="1.5"/>
  <circle cx="735" cy="250" r="6" fill="#9333ea"/>
  <circle cx="735" cy="238" r="3" fill="#a78bfa"/>
  <line x1="735" y1="264" x2="735" y2="270" stroke="#9333ea" stroke-width="2"/>
  <line x1="725" y1="270" x2="745" y2="270" stroke="#9333ea" stroke-width="2"/>

  <line x1="630" y1="284" x2="850" y2="284" stroke="#3b0764" stroke-width="1"/>

  <!-- Bullets pilar 3 -->
  <circle cx="650" cy="304" r="4" fill="#a855f7"/>
  <text x="664" y="308" font-size="11" fill="#cbd5e1">Labs ao vivo (65% do live)</text>
  <circle cx="650" cy="328" r="4" fill="#a855f7"/>
  <text x="664" y="332" font-size="11" fill="#cbd5e1">Mentoria de checkpoint</text>
  <circle cx="650" cy="352" r="4" fill="#a855f7"/>
  <text x="664" y="356" font-size="11" fill="#cbd5e1">Casos reais do Brasil</text>
  <circle cx="650" cy="376" r="4" fill="#a855f7"/>
  <text x="664" y="380" font-size="11" fill="#cbd5e1">Abertura e defesa capstone</text>
  <circle cx="650" cy="400" r="4" fill="#a855f7"/>
  <text x="664" y="404" font-size="11" fill="#cbd5e1">Turma: 15–20 alunos/live</text>
  <circle cx="650" cy="424" r="4" fill="#a855f7"/>
  <text x="664" y="428" font-size="11" fill="#cbd5e1">Instrutor titular fixo</text>

  <!-- === SETA CENTRAL: TEMPO TOTAL PRÁTICO === -->
  <!-- Barra inferior de resumo -->
  <rect x="40" y="466" width="820" height="44" rx="10" fill="#1e293b" stroke="#334155" stroke-width="1"/>
  <text x="220" y="492" text-anchor="middle" font-size="13" fill="#94a3b8">Prática total efetiva:</text>
  <text x="420" y="492" text-anchor="middle" font-size="15" font-weight="bold" fill="#f59e0b">~53% do tempo</text>
  <text x="630" y="492" text-anchor="middle" font-size="12" fill="#64748b">(Labs autoguiados 40% + Labs ao vivo ~13%)</text>

  <!-- Conector entre pilares -->
  <line x1="290" y1="290" x2="325" y2="290" stroke="#475569" stroke-width="1.5" stroke-dasharray="4,3"/>
  <line x1="575" y1="290" x2="610" y2="290" stroke="#475569" stroke-width="1.5" stroke-dasharray="4,3"/>
</svg>
