<?xml version="1.0" encoding="UTF-8"?>
<svg width="980" height="560" viewBox="0 0 980 560" xmlns="http://www.w3.org/2000/svg" font-family="Segoe UI, Arial, sans-serif">
  <!-- Fundo -->
  <rect width="980" height="560" fill="#08101c" rx="16"/>

  <!-- Título -->
  <text x="490" y="36" text-anchor="middle" font-size="18" font-weight="bold" fill="#f1f5f9">Cobertura MITRE ATT&amp;CK — Formação Security Operations em Nuvem</text>
  <text x="490" y="56" text-anchor="middle" font-size="11" fill="#64748b">CECyber · Táticas cobertas pelos 4 cursos · Ambiente Cloud (IaaS, SaaS, PaaS)</text>
  <line x1="20" y1="66" x2="960" y2="66" stroke="#1e293b" stroke-width="1"/>

  <!-- ================== MATRIZ ATT&CK SIMPLIFICADA ================== -->

  <!-- Legenda dos Cursos -->
  <rect x="20" y="74" width="14" height="14" rx="3" fill="#3b82f6"/>
  <text x="40" y="85" font-size="10" fill="#94a3b8">Curso 1 (Google SecOps)</text>
  <rect x="180" y="74" width="14" height="14" rx="3" fill="#7c3aed"/>
  <text x="200" y="85" font-size="10" fill="#94a3b8">Curso 2 (Azure SecOps)</text>
  <rect x="340" y="74" width="14" height="14" rx="3" fill="#d97706"/>
  <text x="360" y="85" font-size="10" fill="#94a3b8">Curso 3 (AWS SecOps)</text>
  <rect x="500" y="74" width="14" height="14" rx="3" fill="#16a34a"/>
  <text x="520" y="85" font-size="10" fill="#94a3b8">Curso 4 (Cloud Tools)</text>
  <rect x="650" y="74" width="14" height="14" rx="3" fill="#dc2626"/>
  <text x="670" y="85" font-size="10" fill="#94a3b8">Cobertura multi-curso</text>

  <!-- ================== CABEÇALHOS DAS TÁTICAS (colunas) ================== -->
  <!-- 14 táticas ATT&CK for Cloud -->

  <!-- Definição das colunas: largura 64px, espaçamento -->
  <!-- Tática 1: Reconnaissance -->
  <rect x="20" y="100" width="64" height="36" rx="4" fill="#1e293b"/>
  <text x="52" y="115" text-anchor="middle" font-size="8" font-weight="bold" fill="#94a3b8">Reconhe-</text>
  <text x="52" y="128" text-anchor="middle" font-size="8" font-weight="bold" fill="#94a3b8">cimento</text>

  <!-- Tática 2: Resource Development -->
  <rect x="88" y="100" width="64" height="36" rx="4" fill="#1e293b"/>
  <text x="120" y="115" text-anchor="middle" font-size="8" font-weight="bold" fill="#94a3b8">Desen. de</text>
  <text x="120" y="128" text-anchor="middle" font-size="8" font-weight="bold" fill="#94a3b8">Recursos</text>

  <!-- Tática 3: Initial Access -->
  <rect x="156" y="100" width="64" height="36" rx="4" fill="#dc2626" opacity="0.8"/>
  <text x="188" y="115" text-anchor="middle" font-size="8" font-weight="bold" fill="#fff">Acesso</text>
  <text x="188" y="128" text-anchor="middle" font-size="8" font-weight="bold" fill="#fff">Inicial</text>

  <!-- Tática 4: Execution -->
  <rect x="224" y="100" width="64" height="36" rx="4" fill="#7c3aed" opacity="0.8"/>
  <text x="256" y="115" text-anchor="middle" font-size="8" font-weight="bold" fill="#fff">Execu-</text>
  <text x="256" y="128" text-anchor="middle" font-size="8" font-weight="bold" fill="#fff">ção</text>

  <!-- Tática 5: Persistence -->
  <rect x="292" y="100" width="64" height="36" rx="4" fill="#d97706" opacity="0.8"/>
  <text x="324" y="115" text-anchor="middle" font-size="8" font-weight="bold" fill="#fff">Persis-</text>
  <text x="324" y="128" text-anchor="middle" font-size="8" font-weight="bold" fill="#fff">tência</text>

  <!-- Tática 6: Privilege Escalation -->
  <rect x="360" y="100" width="64" height="36" rx="4" fill="#dc2626" opacity="0.8"/>
  <text x="392" y="115" text-anchor="middle" font-size="8" font-weight="bold" fill="#fff">Escal. de</text>
  <text x="392" y="128" text-anchor="middle" font-size="8" font-weight="bold" fill="#fff">Privilégio</text>

  <!-- Tática 7: Defense Evasion -->
  <rect x="428" y="100" width="64" height="36" rx="4" fill="#1e293b"/>
  <text x="460" y="115" text-anchor="middle" font-size="8" font-weight="bold" fill="#94a3b8">Evasão de</text>
  <text x="460" y="128" text-anchor="middle" font-size="8" font-weight="bold" fill="#94a3b8">Defesa</text>

  <!-- Tática 8: Credential Access -->
  <rect x="496" y="100" width="64" height="36" rx="4" fill="#dc2626" opacity="0.8"/>
  <text x="528" y="115" text-anchor="middle" font-size="8" font-weight="bold" fill="#fff">Acesso a</text>
  <text x="528" y="128" text-anchor="middle" font-size="8" font-weight="bold" fill="#fff">Credenciais</text>

  <!-- Tática 9: Discovery -->
  <rect x="564" y="100" width="64" height="36" rx="4" fill="#3b82f6" opacity="0.8"/>
  <text x="596" y="115" text-anchor="middle" font-size="8" font-weight="bold" fill="#fff">Desco-</text>
  <text x="596" y="128" text-anchor="middle" font-size="8" font-weight="bold" fill="#fff">berta</text>

  <!-- Tática 10: Lateral Movement -->
  <rect x="632" y="100" width="64" height="36" rx="4" fill="#7c3aed" opacity="0.8"/>
  <text x="664" y="115" text-anchor="middle" font-size="8" font-weight="bold" fill="#fff">Movimento</text>
  <text x="664" y="128" text-anchor="middle" font-size="8" font-weight="bold" fill="#fff">Lateral</text>

  <!-- Tática 11: Collection -->
  <rect x="700" y="100" width="64" height="36" rx="4" fill="#d97706" opacity="0.8"/>
  <text x="732" y="115" text-anchor="middle" font-size="8" font-weight="bold" fill="#fff">Coleta</text>
  <text x="732" y="128" text-anchor="middle" font-size="8" font-weight="bold" fill="#fff">de Dados</text>

  <!-- Tática 12: C2 -->
  <rect x="768" y="100" width="64" height="36" rx="4" fill="#3b82f6" opacity="0.8"/>
  <text x="800" y="115" text-anchor="middle" font-size="8" font-weight="bold" fill="#fff">Comando</text>
  <text x="800" y="128" text-anchor="middle" font-size="8" font-weight="bold" fill="#fff">e Controle</text>

  <!-- Tática 13: Exfiltration -->
  <rect x="836" y="100" width="64" height="36" rx="4" fill="#dc2626" opacity="0.8"/>
  <text x="868" y="115" text-anchor="middle" font-size="8" font-weight="bold" fill="#fff">Exfiltra-</text>
  <text x="868" y="128" text-anchor="middle" font-size="8" font-weight="bold" fill="#fff">ção</text>

  <!-- Tática 14: Impact -->
  <rect x="904" y="100" width="64" height="36" rx="4" fill="#1e293b"/>
  <text x="936" y="115" text-anchor="middle" font-size="8" font-weight="bold" fill="#94a3b8">Impacto</text>

  <!-- ================== LINHAS DE COBERTURA POR CURSO ================== -->

  <!-- CURSO 1: Google SecOps (linha azul) -->
  <text x="20" y="165" font-size="10" font-weight="bold" fill="#3b82f6">Curso 1 — Google SecOps</text>
  <!-- Cells preenchidas -->
  <rect x="156" y="170" width="64" height="24" rx="3" fill="#3b82f6" opacity="0.7"/>
  <text x="188" y="186" text-anchor="middle" font-size="8" fill="#fff">T1566, T1190</text>
  <rect x="224" y="170" width="64" height="24" rx="3" fill="#3b82f6" opacity="0.7"/>
  <text x="256" y="186" text-anchor="middle" font-size="8" fill="#fff">T1059</text>
  <rect x="496" y="170" width="64" height="24" rx="3" fill="#3b82f6" opacity="0.9"/>
  <text x="528" y="186" text-anchor="middle" font-size="8" fill="#fff">T1110.003</text>
  <rect x="564" y="170" width="64" height="24" rx="3" fill="#3b82f6" opacity="0.7"/>
  <text x="596" y="186" text-anchor="middle" font-size="8" fill="#fff">T1580</text>
  <rect x="632" y="170" width="64" height="24" rx="3" fill="#3b82f6" opacity="0.7"/>
  <text x="664" y="186" text-anchor="middle" font-size="8" fill="#fff">T1210</text>
  <rect x="768" y="170" width="64" height="24" rx="3" fill="#3b82f6" opacity="0.9"/>
  <text x="800" y="186" text-anchor="middle" font-size="8" fill="#fff">T1071.001</text>
  <rect x="836" y="170" width="64" height="24" rx="3" fill="#3b82f6" opacity="0.7"/>
  <text x="868" y="186" text-anchor="middle" font-size="8" fill="#fff">T1048</text>

  <!-- CURSO 2: Azure SecOps (linha roxa) -->
  <text x="20" y="215" font-size="10" font-weight="bold" fill="#7c3aed">Curso 2 — Azure SecOps</text>
  <rect x="156" y="220" width="64" height="24" rx="3" fill="#7c3aed" opacity="0.7"/>
  <text x="188" y="236" text-anchor="middle" font-size="8" fill="#fff">T1566.001</text>
  <rect x="292" y="220" width="64" height="24" rx="3" fill="#7c3aed" opacity="0.7"/>
  <text x="324" y="236" text-anchor="middle" font-size="8" fill="#fff">T1098</text>
  <rect x="360" y="220" width="64" height="24" rx="3" fill="#7c3aed" opacity="0.9"/>
  <text x="392" y="236" text-anchor="middle" font-size="8" fill="#fff">T1484, T1548</text>
  <rect x="496" y="220" width="64" height="24" rx="3" fill="#7c3aed" opacity="0.9"/>
  <text x="528" y="236" text-anchor="middle" font-size="8" fill="#fff">T1528, T1539</text>
  <rect x="632" y="220" width="64" height="24" rx="3" fill="#7c3aed" opacity="0.7"/>
  <text x="664" y="236" text-anchor="middle" font-size="8" fill="#fff">T1534</text>
  <rect x="700" y="220" width="64" height="24" rx="3" fill="#7c3aed" opacity="0.7"/>
  <text x="732" y="236" text-anchor="middle" font-size="8" fill="#fff">T1530</text>
  <rect x="836" y="220" width="64" height="24" rx="3" fill="#7c3aed" opacity="0.7"/>
  <text x="868" y="236" text-anchor="middle" font-size="8" fill="#fff">T1567.002</text>

  <!-- CURSO 3: AWS SecOps (linha laranja) -->
  <text x="20" y="265" font-size="10" font-weight="bold" fill="#d97706">Curso 3 — AWS SecOps</text>
  <rect x="88" y="270" width="64" height="24" rx="3" fill="#d97706" opacity="0.7"/>
  <text x="120" y="286" text-anchor="middle" font-size="8" fill="#fff">T1587</text>
  <rect x="156" y="270" width="64" height="24" rx="3" fill="#d97706" opacity="0.7"/>
  <text x="188" y="286" text-anchor="middle" font-size="8" fill="#fff">T1078.004</text>
  <rect x="292" y="270" width="64" height="24" rx="3" fill="#d97706" opacity="0.7"/>
  <text x="324" y="286" text-anchor="middle" font-size="8" fill="#fff">T1136.003</text>
  <rect x="360" y="270" width="64" height="24" rx="3" fill="#d97706" opacity="0.9"/>
  <text x="392" y="286" text-anchor="middle" font-size="8" fill="#fff">T1548.005</text>
  <rect x="496" y="270" width="64" height="24" rx="3" fill="#d97706" opacity="0.9"/>
  <text x="528" y="286" text-anchor="middle" font-size="8" fill="#fff">T1552.005</text>
  <rect x="564" y="270" width="64" height="24" rx="3" fill="#d97706" opacity="0.7"/>
  <text x="596" y="286" text-anchor="middle" font-size="8" fill="#fff">T1526</text>
  <rect x="700" y="270" width="64" height="24" rx="3" fill="#d97706" opacity="0.7"/>
  <text x="732" y="286" text-anchor="middle" font-size="8" fill="#fff">T1213.003</text>
  <rect x="836" y="270" width="64" height="24" rx="3" fill="#d97706" opacity="0.7"/>
  <text x="868" y="286" text-anchor="middle" font-size="8" fill="#fff">T1537</text>
  <rect x="904" y="270" width="64" height="24" rx="3" fill="#d97706" opacity="0.7"/>
  <text x="936" y="286" text-anchor="middle" font-size="8" fill="#fff">T1496</text>

  <!-- CURSO 4: Cloud Security Tools (linha verde) -->
  <text x="20" y="315" font-size="10" font-weight="bold" fill="#16a34a">Curso 4 — Cloud Security Tools</text>
  <rect x="88" y="320" width="64" height="24" rx="3" fill="#16a34a" opacity="0.7"/>
  <text x="120" y="336" text-anchor="middle" font-size="8" fill="#fff">T1595</text>
  <rect x="156" y="320" width="64" height="24" rx="3" fill="#16a34a" opacity="0.7"/>
  <text x="188" y="336" text-anchor="middle" font-size="8" fill="#fff">T1190</text>
  <rect x="292" y="320" width="64" height="24" rx="3" fill="#16a34a" opacity="0.7"/>
  <text x="324" y="336" text-anchor="middle" font-size="8" fill="#fff">T1525</text>
  <rect x="360" y="320" width="64" height="24" rx="3" fill="#16a34a" opacity="0.9"/>
  <text x="392" y="336" text-anchor="middle" font-size="8" fill="#fff">T1611</text>
  <rect x="428" y="320" width="64" height="24" rx="3" fill="#16a34a" opacity="0.9"/>
  <text x="460" y="336" text-anchor="middle" font-size="8" fill="#fff">T1610, T1562</text>
  <rect x="496" y="320" width="64" height="24" rx="3" fill="#16a34a" opacity="0.7"/>
  <text x="528" y="336" text-anchor="middle" font-size="8" fill="#fff">T1552.007</text>
  <rect x="768" y="320" width="64" height="24" rx="3" fill="#16a34a" opacity="0.7"/>
  <text x="800" y="336" text-anchor="middle" font-size="8" fill="#fff">T1071.004</text>

  <!-- ================== RESUMO DE COBERTURA ================== -->
  <line x1="20" y1="360" x2="960" y2="360" stroke="#1e293b" stroke-width="1"/>
  <text x="490" y="383" text-anchor="middle" font-size="13" font-weight="bold" fill="#94a3b8">Resumo de Cobertura por Domínio ATT&amp;CK for Cloud</text>

  <!-- Barras de cobertura -->
  <!-- TA0001 Initial Access -->
  <text x="20" y="408" font-size="10" fill="#cbd5e1">TA0001 — Acesso Inicial</text>
  <rect x="180" y="396" width="260" height="16" rx="4" fill="#dc2626" opacity="0.8"/>
  <text x="450" y="408" font-size="10" fill="#fca5a5">Alta cobertura (todos os cursos)</text>

  <!-- TA0006 Credential Access -->
  <text x="20" y="432" font-size="10" fill="#cbd5e1">TA0006 — Credential Access</text>
  <rect x="180" y="420" width="220" height="16" rx="4" fill="#dc2626" opacity="0.7"/>
  <text x="410" y="432" font-size="10" fill="#fca5a5">Alta cobertura (Cursos 1, 2, 3)</text>

  <!-- TA0004 Privilege Escalation -->
  <text x="20" y="456" font-size="10" fill="#cbd5e1">TA0004 — Escalação de Privilégio</text>
  <rect x="180" y="444" width="190" height="16" rx="4" fill="#f59e0b" opacity="0.7"/>
  <text x="380" y="456" font-size="10" fill="#fcd34d">Cobertura média (Cursos 2, 3, 4)</text>

  <!-- TA0010 Exfiltration -->
  <text x="20" y="480" font-size="10" fill="#cbd5e1">TA0010 — Exfiltração</text>
  <rect x="180" y="468" width="200" height="16" rx="4" fill="#dc2626" opacity="0.7"/>
  <text x="390" y="480" font-size="10" fill="#fca5a5">Alta cobertura (Cursos 1, 2, 3)</text>

  <!-- TA0011 Command and Control -->
  <text x="20" y="504" font-size="10" fill="#cbd5e1">TA0011 — Comando e Controle</text>
  <rect x="180" y="492" width="160" height="16" rx="4" fill="#3b82f6" opacity="0.7"/>
  <text x="350" y="504" font-size="10" fill="#93c5fd">Cobertura média (Cursos 1, 4)</text>

  <!-- Nota -->
  <text x="490" y="532" text-anchor="middle" font-size="10" fill="#475569">Nota: As técnicas listadas são exemplos representativos. Para o mapeamento completo módulo a módulo,</text>
  <text x="490" y="548" text-anchor="middle" font-size="10" fill="#475569">consulte docs/mapa-certificacoes.md e use o MITRE ATT&amp;CK Navigator para visualização interativa.</text>
</svg>
